<svg xmlns="http://www.w3.org/2000/svg" width="180" height="180" viewBox="0 0 180 180">
  <defs>
    <linearGradient id="loomGradientApple" x1="0%" y1="0%" x2="100%" y2="100%">
      <stop offset="0%" style="stop-color:hsl(263, 70%, 50%);stop-opacity:1" />
      <stop offset="100%" style="stop-color:hsl(195, 85%, 45%);stop-opacity:1" />
    </linearGradient>
  </defs>

  <!-- Main circular background -->
  <circle cx="90" cy="90" r="75" fill="url(#loomGradientApple)" />

  <!-- Inner white circle -->
  <circle cx="90" cy="90" r="60" fill="white" />

  <!-- Weaving pattern -->
  <g stroke="hsl(263, 70%, 50%)" stroke-width="2.5" fill="none">
    <!-- Vertical threads -->
    <line x1="48" y1="35" x2="48" y2="145" />
    <line x1="67.5" y1="35" x2="67.5" y2="145" />
    <line x1="90" y1="35" x2="90" y2="145" />
    <line x1="112.5" y1="35" x2="112.5" y2="145" />
    <line x1="132" y1="35" x2="132" y2="145" />
  </g>

  <!-- Horizontal threads -->
  <g stroke="hsl(195, 85%, 45%)" stroke-width="2.5" fill="none">
    <line x1="35" y1="63" x2="145" y2="63" />
    <line x1="35" y1="90" x2="145" y2="90" />
    <line x1="35" y1="117" x2="145" y2="117" />
  </g>

  <!-- Connecting nodes -->
  <circle cx="48" cy="63" r="3.5" fill="hsl(45, 90%, 55%)" />
  <circle cx="67.5" cy="90" r="3.5" fill="hsl(45, 90%, 55%)" />
  <circle cx="90" cy="117" r="3.5" fill="hsl(45, 90%, 55%)" />
  <circle cx="112.5" cy="63" r="3.5" fill="hsl(45, 90%, 55%)" />
  <circle cx="132" cy="90" r="3.5" fill="hsl(45, 90%, 55%)" />

  <!-- Subtle glow effect -->
  <circle cx="90" cy="90" r="75" fill="none" stroke="url(#loomGradientApple)" stroke-width="1" opacity="0.3" />
</svg>