<svg xmlns="http://www.w3.org/2000/svg" width="192" height="192" viewBox="0 0 192 192">
  <defs>
    <linearGradient id="loomGradient192" x1="0%" y1="0%" x2="100%" y2="100%">
      <stop offset="0%" style="stop-color:hsl(263, 70%, 50%);stop-opacity:1" />
      <stop offset="100%" style="stop-color:hsl(195, 85%, 45%);stop-opacity:1" />
    </linearGradient>
  </defs>

  <!-- Main circular background -->
  <circle cx="96" cy="96" r="80" fill="url(#loomGradient192)" />

  <!-- Inner white circle -->
  <circle cx="96" cy="96" r="65" fill="white" />

  <!-- Weaving pattern -->
  <g stroke="hsl(263, 70%, 50%)" stroke-width="3" fill="none">
    <!-- Vertical threads -->
    <line x1="52" y1="40" x2="52" y2="152" />
    <line x1="72" y1="40" x2="72" y2="152" />
    <line x1="96" y1="40" x2="96" y2="152" />
    <line x1="120" y1="40" x2="120" y2="152" />
    <line x1="140" y1="40" x2="140" y2="152" />
  </g>

  <!-- Horizontal threads -->
  <g stroke="hsl(195, 85%, 45%)" stroke-width="3" fill="none">
    <line x1="40" y1="68" x2="152" y2="68" />
    <line x1="40" y1="96" x2="152" y2="96" />
    <line x1="40" y1="124" x2="152" y2="124" />
  </g>

  <!-- Connecting nodes -->
  <circle cx="52" cy="68" r="4" fill="hsl(45, 90%, 55%)" />
  <circle cx="72" cy="96" r="4" fill="hsl(45, 90%, 55%)" />
  <circle cx="96" cy="124" r="4" fill="hsl(45, 90%, 55%)" />
  <circle cx="120" cy="68" r="4" fill="hsl(45, 90%, 55%)" />
  <circle cx="140" cy="96" r="4" fill="hsl(45, 90%, 55%)" />

  <!-- Subtle glow effect -->
  <circle cx="96" cy="96" r="80" fill="none" stroke="url(#loomGradient192)" stroke-width="1" opacity="0.3" />
</svg>