<svg xmlns="http://www.w3.org/2000/svg" width="192" height="192" viewBox="0 0 192 192">
  <defs>
    <linearGradient id="loomGradient192" x1="0%" y1="0%" x2="100%" y2="100%">
      <stop offset="0%" style="stop-color:hsl(263, 70%, 50%);stop-opacity:1" />
      <stop offset="100%" style="stop-color:hsl(195, 85%, 45%);stop-opacity:1" />
    </linearGradient>
  </defs>

  <!-- Main circular background -->
  <circle cx="96" cy="96" r="90" fill="url(#loomGradient192)" />

  <!-- Inner white circle -->
  <circle cx="96" cy="96" r="74" fill="white" />

  <!-- Weaving pattern -->
  <g stroke="hsl(263, 70%, 50%)" stroke-width="3" fill="none">
    <!-- Vertical threads -->
    <line x1="48" y1="32" x2="48" y2="160" />
    <line x1="72" y1="32" x2="72" y2="160" />
    <line x1="96" y1="32" x2="96" y2="160" />
    <line x1="120" y1="32" x2="120" y2="160" />
    <line x1="144" y1="32" x2="144" y2="160" />
  </g>

  <!-- Horizontal threads -->
  <g stroke="hsl(195, 85%, 45%)" stroke-width="3" fill="none">
    <line x1="32" y1="64" x2="160" y2="64" />
    <line x1="32" y1="96" x2="160" y2="96" />
    <line x1="32" y1="128" x2="160" y2="128" />
  </g>

  <!-- Connecting nodes -->
  <circle cx="48" cy="64" r="4" fill="hsl(45, 90%, 55%)" />
  <circle cx="72" cy="96" r="4" fill="hsl(45, 90%, 55%)" />
  <circle cx="96" cy="128" r="4" fill="hsl(45, 90%, 55%)" />
  <circle cx="120" cy="64" r="4" fill="hsl(45, 90%, 55%)" />
  <circle cx="144" cy="96" r="4" fill="hsl(45, 90%, 55%)" />

  <!-- Subtle glow effect -->
  <circle cx="96" cy="96" r="90" fill="none" stroke="url(#loomGradient192)" stroke-width="1" opacity="0.3" />
</svg>