<svg xmlns="http://www.w3.org/2000/svg" width="144" height="144" viewBox="0 0 144 144">
  <defs>
    <linearGradient id="loomGradient" x1="0%" y1="0%" x2="100%" y2="100%">
      <stop offset="0%" style="stop-color:hsl(263, 70%, 50%);stop-opacity:1" />
      <stop offset="100%" style="stop-color:hsl(195, 85%, 45%);stop-opacity:1" />
    </linearGradient>
  </defs>

  <!-- Main circular background -->
  <circle cx="72" cy="72" r="60" fill="url(#loomGradient)" />

  <!-- Inner white circle -->
  <circle cx="72" cy="72" r="48" fill="white" />

  <!-- Weaving pattern -->
  <g stroke="hsl(263, 70%, 50%)" stroke-width="2" fill="none">
    <!-- Vertical threads -->
    <line x1="39" y1="28" x2="39" y2="116" />
    <line x1="54" y1="28" x2="54" y2="116" />
    <line x1="72" y1="28" x2="72" y2="116" />
    <line x1="90" y1="28" x2="90" y2="116" />
    <line x1="105" y1="28" x2="105" y2="116" />
  </g>

  <!-- Horizontal threads -->
  <g stroke="hsl(195, 85%, 45%)" stroke-width="2" fill="none">
    <line x1="28" y1="51" x2="116" y2="51" />
    <line x1="28" y1="72" x2="116" y2="72" />
    <line x1="28" y1="93" x2="116" y2="93" />
  </g>

  <!-- Connecting nodes -->
  <circle cx="39" cy="51" r="3" fill="hsl(45, 90%, 55%)" />
  <circle cx="54" cy="72" r="3" fill="hsl(45, 90%, 55%)" />
  <circle cx="72" cy="93" r="3" fill="hsl(45, 90%, 55%)" />
  <circle cx="90" cy="51" r="3" fill="hsl(45, 90%, 55%)" />
  <circle cx="105" cy="72" r="3" fill="hsl(45, 90%, 55%)" />

  <!-- Subtle glow effect -->
  <circle cx="72" cy="72" r="60" fill="none" stroke="url(#loomGradient)" stroke-width="1" opacity="0.3" />
</svg>